<svg width="34" height="32" viewBox="0 0 34 32" fill="none" xmlns="http://www.w3.org/2000/svg">
<path d="M18 30.5C22.5134 30.5 26.3925 29.1806 29.1493 26.6843C31.9123 24.1825 33.5 20.5412 33.5 16C33.5 11.4624 31.9155 7.58093 29.1673 4.83274C26.4191 2.08454 22.5376 0.5 18 0.5C8.9719 0.5 0.5 6.80969 0.5 16C0.5 20.5904 2.62709 24.2317 5.88336 26.7115C9.12932 29.1835 13.4905 30.5 18 30.5Z" stroke="#9FABCD"/>
<path d="M13 21C14.0294 22.4704 15.75 25 20 25C24.5 25 26.5588 22.1763 27 21" stroke="#9FABCD" stroke-width="1.5" stroke-linecap="round"/>
<path d="M24 12.0369C24.5665 13.6015 26.5382 14.8775 28.1976 14.7535" stroke="#9FABCD" stroke-width="1.5" stroke-linecap="round"/>
<path d="M16.1978 12.0369C15.6312 13.6015 13.6596 14.8775 12.0002 14.7535" stroke="#9FABCD" stroke-width="1.5" stroke-linecap="round"/>
</svg>
