<svg width="34" height="34" viewBox="0 0 34 34" fill="none" xmlns="http://www.w3.org/2000/svg">
<path d="M17 33.5C21.4881 33.5 25.604 32.4438 28.6114 30.2154C31.6378 27.9729 33.5 24.572 33.5 20C33.5 15.4566 31.6629 10.5992 28.7052 6.87532C25.7486 3.15276 21.6177 0.5 17 0.5C12.3823 0.5 8.25145 3.15276 5.29476 6.87532C2.33706 10.5992 0.5 15.4566 0.5 20C0.5 24.572 2.36219 27.9729 5.38862 30.2154C8.396 32.4438 12.5119 33.5 17 33.5Z" stroke="#9FABCD"/>
<path d="M20 25.0781C19.1176 23.9753 16.4454 21.8359 12.8151 22.1006C9.18487 22.3653 8.37815 24.1959 8 25.0781" stroke="#9FABCD" stroke-width="1.5" stroke-linecap="round"/>
<path d="M9.22607 12.479C8.96831 13.9156 7.45306 15.311 6.00017 15.4498" stroke="#9FABCD" stroke-width="1.5" stroke-linecap="round"/>
<path d="M17.4023 12.1836C17.4962 13.6401 18.844 15.1978 20.2719 15.4999" stroke="#9FABCD" stroke-width="1.5" stroke-linecap="round"/>
<path d="M23 20C23 20.8284 22.3284 21.5 21.5 21.5C20.6716 21.5 20 20.8284 20 20C20 19.1716 21.5 17 21.5 17C21.5 17 23 19.1716 23 20Z" fill="#9FABCD"/>
</svg>
