<svg width="33" height="34" viewBox="0 0 33 34" fill="none" xmlns="http://www.w3.org/2000/svg">
<path d="M17 33.5C22.1741 33.5 26.0678 31.1209 28.6526 27.6102C31.2271 24.1135 32.5 19.5043 32.5 15C32.5 10.4588 30.9123 6.81751 28.1493 4.31566C25.3925 1.81938 21.5134 0.5 17 0.5C12.4885 0.5 8.36902 1.8179 5.36757 4.30104C2.35656 6.7921 0.5 10.4337 0.5 15C0.5 24.0091 6.63054 33.5 17 33.5Z" stroke="#9FABCD"/>
<path d="M25 18C24.1667 19.8333 22.7249 23 19.5 23C16.5 23 14.5 19.5 14 18L25 18Z" fill="#9FABCD" stroke="#9FABCD" stroke-width="1.5" stroke-linecap="round" stroke-linejoin="round"/>
<path d="M24 10.6699L27.2523 13.9003" stroke="#9FABCD" stroke-width="1.5" stroke-linecap="round"/>
<path d="M14.2525 10.6699L11.0001 13.9003" stroke="#9FABCD" stroke-width="1.5" stroke-linecap="round"/>
</svg>
